<svg width="559" height="200" viewBox="0 0 559 200" fill="none" xmlns="http://www.w3.org/2000/svg">
<path d="M436.035 0C435.856 0.723501 435.76 1.47993 435.76 2.25885V26.7253C435.76 31.8942 439.945 36.0853 445.106 36.0855H558.16V68.6398C558.16 73.8091 554.912 78 550.906 78H436.959V44.1734C436.959 39.0044 432.775 34.8132 427.613 34.8132H396.16V0H436.035Z" fill="#FFC51D"/>
<path d="M395.438 198.63L405.304 176.309H402.878L386.542 140.078H398.43L410.076 166.362L420.589 140.078H432.154L407.003 198.63H395.438Z" fill="#438CC7"/>
<path d="M359.636 199.6C355.754 199.6 352.357 199.115 349.446 198.144C346.534 197.228 344.27 195.799 342.653 193.858C341.089 191.971 340.307 189.626 340.307 186.822C340.307 184.935 340.792 183.156 341.763 181.485C342.733 179.813 344.135 178.304 345.968 176.956C347.855 175.554 350.201 174.368 353.004 173.398L357.129 178.735C354.649 179.544 352.842 180.541 351.71 181.727C350.632 182.967 350.093 184.288 350.093 185.69C350.093 186.93 350.497 187.981 351.306 188.844C352.168 189.707 353.301 190.327 354.702 190.704C356.158 191.135 357.776 191.351 359.555 191.351C361.28 191.351 362.763 191.135 364.003 190.704C365.297 190.273 366.294 189.626 366.995 188.763C367.75 187.955 368.127 186.984 368.127 185.852C368.127 184.396 367.615 183.21 366.591 182.293C365.566 181.377 363.517 180.811 360.444 180.595C357.695 180.38 355.242 180.083 353.085 179.706C350.982 179.274 349.122 178.789 347.505 178.25C345.887 177.657 344.513 177.01 343.38 176.309C342.302 175.608 341.412 174.907 340.712 174.206V172.346L349.365 163.046L357.209 165.553L347.02 175.581L350.093 170.244C350.686 170.567 351.252 170.891 351.791 171.214C352.384 171.484 353.112 171.753 353.975 172.023C354.837 172.238 355.969 172.454 357.371 172.67C358.773 172.885 360.552 173.074 362.709 173.236C366.267 173.559 369.178 174.233 371.443 175.258C373.761 176.282 375.46 177.657 376.538 179.382C377.616 181.053 378.155 183.129 378.155 185.609C378.155 188.035 377.481 190.3 376.133 192.402C374.84 194.559 372.818 196.284 370.068 197.578C367.318 198.926 363.841 199.6 359.636 199.6ZM359.636 168.788C356.239 168.788 353.301 168.141 350.821 166.847C348.394 165.499 346.507 163.72 345.16 161.509C343.866 159.245 343.219 156.738 343.219 153.988C343.219 151.239 343.866 148.759 345.16 146.548C346.507 144.284 348.394 142.478 350.821 141.13C353.301 139.782 356.239 139.108 359.636 139.108C363.086 139.108 366.025 139.782 368.451 141.13C370.931 142.478 372.818 144.284 374.112 146.548C375.406 148.759 376.053 151.239 376.053 153.988C376.053 156.738 375.406 159.245 374.112 161.509C372.818 163.72 370.931 165.499 368.451 166.847C366.025 168.141 363.086 168.788 359.636 168.788ZM359.636 160.458C361.738 160.458 363.437 159.919 364.731 158.841C366.024 157.762 366.671 156.172 366.671 154.069C366.671 151.967 366.024 150.376 364.731 149.298C363.437 148.166 361.738 147.599 359.636 147.599C357.587 147.599 355.889 148.166 354.541 149.298C353.247 150.376 352.6 151.967 352.6 154.069C352.6 156.172 353.247 157.762 354.541 158.841C355.889 159.919 357.587 160.458 359.636 160.458ZM366.429 147.842L364.65 140.078H381.39V146.548L366.429 147.842Z" fill="#438CC7"/>
<path d="M309.943 180.838V140.078H319.648L320.699 147.599C321.67 145.82 322.883 144.311 324.338 143.071C325.848 141.831 327.546 140.86 329.433 140.159C331.374 139.458 333.504 139.108 335.822 139.108V150.673H332.102C330.485 150.673 328.975 150.861 327.573 151.239C326.225 151.616 325.039 152.236 324.015 153.099C322.991 153.907 322.209 155.04 321.67 156.495C321.131 157.951 320.861 159.784 320.861 161.995V180.838H309.943Z" fill="#438CC7"/>
<path d="M280.865 181.808C276.767 181.808 273.128 180.946 269.947 179.22C266.82 177.441 264.367 174.988 262.588 171.861C260.862 168.68 260 165.014 260 160.862C260 156.603 260.862 152.856 262.588 149.621C264.367 146.332 266.82 143.772 269.947 141.938C273.074 140.051 276.713 139.108 280.865 139.108C284.908 139.108 288.44 139.998 291.459 141.777C294.478 143.556 296.823 145.955 298.495 148.974C300.166 151.993 301.002 155.417 301.002 159.245C301.002 159.784 301.002 160.404 301.002 161.105C301.002 161.752 300.948 162.426 300.84 163.127H267.763V156.495H290.003C289.841 153.854 288.898 151.778 287.173 150.268C285.501 148.759 283.399 148.004 280.865 148.004C279.032 148.004 277.333 148.435 275.77 149.298C274.206 150.106 272.966 151.373 272.05 153.099C271.187 154.824 270.756 157.008 270.756 159.649V161.995C270.756 164.205 271.16 166.146 271.969 167.817C272.831 169.435 274.018 170.702 275.527 171.618C277.037 172.481 278.789 172.912 280.784 172.912C282.779 172.912 284.423 172.481 285.717 171.618C287.065 170.756 288.062 169.651 288.709 168.303H299.87C299.115 170.837 297.848 173.128 296.069 175.177C294.289 177.225 292.106 178.843 289.518 180.029C286.93 181.215 284.046 181.808 280.865 181.808Z" fill="#438CC7"/>
<path d="M211.381 180.838V140.078H221.004L221.813 146.71C223.053 144.445 224.805 142.612 227.07 141.211C229.388 139.809 232.138 139.108 235.319 139.108C238.715 139.108 241.573 139.809 243.891 141.211C246.21 142.612 247.962 144.661 249.148 147.357C250.388 150.053 251.008 153.368 251.008 157.304V180.838H240.171V158.355C240.171 155.121 239.47 152.64 238.068 150.915C236.721 149.19 234.618 148.327 231.76 148.327C229.927 148.327 228.283 148.759 226.827 149.621C225.425 150.484 224.32 151.724 223.512 153.341C222.703 154.905 222.298 156.819 222.298 159.083V180.838H211.381Z" fill="#438CC7"/>
<path d="M164.474 180.838V124.228H201.675V133.043H175.392V147.842H199.249V156.334H175.392V172.023H201.675V180.838H164.474Z" fill="#438CC7"/>
<path d="M405.432 87.997C402.035 87.997 399.232 87.4578 397.021 86.3795C394.811 85.2473 393.166 83.7647 392.088 81.9316C391.064 80.0446 390.552 77.9688 390.552 75.7044C390.552 73.2244 391.172 71.0408 392.412 69.1538C393.706 67.2668 395.619 65.7842 398.153 64.7059C400.741 63.6276 403.976 63.0884 407.858 63.0884H417.967C417.967 61.0936 417.697 59.4492 417.158 58.1553C416.619 56.8074 415.784 55.81 414.651 55.163C413.519 54.516 412.01 54.1925 410.123 54.1925C408.074 54.1925 406.322 54.6508 404.866 55.5674C403.464 56.43 402.601 57.7778 402.278 59.6109H391.684C391.953 56.6996 392.897 54.1925 394.514 52.0899C396.186 49.9333 398.369 48.2619 401.065 47.0758C403.814 45.8897 406.861 45.2966 410.203 45.2966C414.031 45.2966 417.347 45.9436 420.151 47.2376C422.954 48.5315 425.111 50.3916 426.62 52.8177C428.13 55.2439 428.885 58.2361 428.885 61.7945V87.0265H419.665L418.452 80.7994C417.859 81.8777 417.158 82.8481 416.35 83.7107C415.541 84.5734 414.597 85.3282 413.519 85.9752C412.441 86.6221 411.228 87.1074 409.88 87.4309C408.532 87.8083 407.049 87.997 405.432 87.997ZM408.02 79.5863C409.422 79.5863 410.662 79.3437 411.74 78.8584C412.872 78.3193 413.843 77.6184 414.651 76.7558C415.46 75.8392 416.08 74.8148 416.511 73.6826C416.997 72.4965 417.32 71.2295 417.482 69.8817V69.8008H409.152C407.481 69.8008 406.106 70.0165 405.028 70.4478C404.003 70.8252 403.248 71.3913 402.763 72.1461C402.278 72.9009 402.035 73.7635 402.035 74.734C402.035 75.8123 402.278 76.7019 402.763 77.4027C403.248 78.1036 403.949 78.6428 404.866 79.0202C405.782 79.3976 406.834 79.5863 408.02 79.5863Z" fill="#438CC7"/>
<path d="M358.593 87.0265V46.2671H368.297L369.349 53.7882C370.319 52.009 371.532 50.4994 372.988 49.2594C374.497 48.0193 376.196 47.0489 378.083 46.348C380.024 45.6471 382.153 45.2966 384.472 45.2966V56.8613H380.752C379.134 56.8613 377.624 57.05 376.223 57.4274C374.875 57.8048 373.689 58.4248 372.664 59.2875C371.64 60.0962 370.858 61.2284 370.319 62.6841C369.78 64.1398 369.51 65.9729 369.51 68.1834V87.0265H358.593Z" fill="#438CC7"/>
<path d="M324.955 87.997C321.558 87.997 318.755 87.4578 316.544 86.3795C314.334 85.2473 312.689 83.7647 311.611 81.9316C310.587 80.0446 310.074 77.9688 310.074 75.7044C310.074 73.2244 310.694 71.0408 311.935 69.1538C313.228 67.2668 315.142 65.7842 317.676 64.7059C320.264 63.6276 323.499 63.0884 327.381 63.0884H337.49C337.49 61.0936 337.22 59.4492 336.681 58.1553C336.142 56.8074 335.306 55.81 334.174 55.163C333.042 54.516 331.532 54.1925 329.645 54.1925C327.597 54.1925 325.844 54.6508 324.389 55.5674C322.987 56.43 322.124 57.7778 321.801 59.6109H311.207C311.476 56.6996 312.42 54.1925 314.037 52.0899C315.709 49.9333 317.892 48.2619 320.588 47.0758C323.337 45.8897 326.384 45.2966 329.726 45.2966C333.554 45.2966 336.87 45.9436 339.674 47.2376C342.477 48.5315 344.634 50.3916 346.143 52.8177C347.653 55.2439 348.408 58.2361 348.408 61.7945V87.0265H339.188L337.975 80.7994C337.382 81.8777 336.681 82.8481 335.873 83.7107C335.064 84.5734 334.12 85.3282 333.042 85.9752C331.964 86.6221 330.751 87.1074 329.403 87.4309C328.055 87.8083 326.572 87.997 324.955 87.997ZM327.543 79.5863C328.945 79.5863 330.185 79.3437 331.263 78.8584C332.395 78.3193 333.366 77.6184 334.174 76.7558C334.983 75.8392 335.603 74.8148 336.034 73.6826C336.52 72.4965 336.843 71.2295 337.005 69.8817V69.8008H328.675C327.004 69.8008 325.629 70.0165 324.551 70.4478C323.526 70.8252 322.771 71.3913 322.286 72.1461C321.801 72.9009 321.558 73.7635 321.558 74.734C321.558 75.8123 321.801 76.7019 322.286 77.4027C322.771 78.1036 323.472 78.6428 324.389 79.0202C325.305 79.3976 326.357 79.5863 327.543 79.5863Z" fill="#438CC7"/>
<path d="M294.578 87.0263C291.721 87.0263 289.214 86.595 287.057 85.7324C284.954 84.8158 283.31 83.3332 282.124 81.2844C280.938 79.1818 280.345 76.3243 280.345 72.712V55.4055H273.39V46.2669H280.345L281.558 35.1875H291.262V46.2669H302.018V55.4055H291.262V72.8738C291.262 74.7069 291.667 75.9739 292.476 76.6747C293.284 77.3756 294.659 77.7261 296.6 77.7261H301.938V87.0263H294.578Z" fill="#438CC7"/>
<path d="M226.307 87.0265V46.2671H235.931L236.74 52.8986C237.98 50.6342 239.732 48.8011 241.996 47.3993C244.315 45.9975 247.064 45.2966 250.245 45.2966C253.642 45.2966 256.499 45.9975 258.818 47.3993C261.136 48.8011 262.888 50.8498 264.074 53.5456C265.314 56.2413 265.934 59.557 265.934 63.4928V87.0265H255.098V64.5441C255.098 61.3093 254.397 58.8292 252.995 57.1039C251.647 55.3787 249.544 54.516 246.687 54.516C244.854 54.516 243.209 54.9473 241.754 55.81C240.352 56.6726 239.247 57.9126 238.438 59.5301C237.629 61.0936 237.225 63.0076 237.225 65.272V87.0265H226.307Z" fill="#438CC7"/>
<path d="M192.669 87.997C189.273 87.997 186.469 87.4578 184.259 86.3795C182.048 85.2473 180.404 83.7647 179.326 81.9316C178.301 80.0446 177.789 77.9688 177.789 75.7044C177.789 73.2244 178.409 71.0408 179.649 69.1538C180.943 67.2668 182.857 65.7842 185.391 64.7059C187.979 63.6276 191.214 63.0884 195.096 63.0884H205.205C205.205 61.0936 204.935 59.4492 204.396 58.1553C203.857 56.8074 203.021 55.81 201.889 55.163C200.757 54.516 199.247 54.1925 197.36 54.1925C195.311 54.1925 193.559 54.6508 192.103 55.5674C190.702 56.43 189.839 57.7778 189.515 59.6109H178.921C179.191 56.6996 180.134 54.1925 181.752 52.0899C183.423 49.9333 185.607 48.2619 188.302 47.0758C191.052 45.8897 194.098 45.2966 197.441 45.2966C201.269 45.2966 204.585 45.9436 207.388 47.2376C210.192 48.5315 212.348 50.3916 213.858 52.8177C215.367 55.2439 216.122 58.2361 216.122 61.7945V87.0265H206.903L205.69 80.7994C205.097 81.8777 204.396 82.8481 203.587 83.7107C202.778 84.5734 201.835 85.3282 200.757 85.9752C199.678 86.6221 198.465 87.1074 197.117 87.4309C195.77 87.8083 194.287 87.997 192.669 87.997ZM195.257 79.5863C196.659 79.5863 197.899 79.3437 198.977 78.8584C200.11 78.3193 201.08 77.6184 201.889 76.7558C202.698 75.8392 203.318 74.8148 203.749 73.6826C204.234 72.4965 204.558 71.2295 204.719 69.8817V69.8008H196.39C194.718 69.8008 193.343 70.0165 192.265 70.4478C191.241 70.8252 190.486 71.3913 190.001 72.1461C189.515 72.9009 189.273 73.7635 189.273 74.734C189.273 75.8123 189.515 76.7019 190.001 77.4027C190.486 78.1036 191.187 78.6428 192.103 79.0202C193.02 79.3976 194.071 79.5863 195.257 79.5863Z" fill="#438CC7"/>
<path d="M138.607 104.818L148.473 82.4977H146.047L129.711 46.2671H141.599L153.245 72.5504L163.758 46.2671H175.323L150.171 104.818H138.607Z" fill="#438CC7"/>
<path d="M100.34 87.0265V46.2671H110.044L111.096 53.7882C112.066 52.009 113.279 50.4994 114.735 49.2594C116.245 48.0193 117.943 47.0489 119.83 46.348C121.771 45.6471 123.901 45.2966 126.219 45.2966V56.8613H122.499C120.881 56.8613 119.372 57.05 117.97 57.4274C116.622 57.8048 115.436 58.4248 114.412 59.2875C113.387 60.0962 112.605 61.2284 112.066 62.6841C111.527 64.1398 111.258 65.9729 111.258 68.1834V87.0265H100.34Z" fill="#438CC7"/>
<path d="M65.7096 87.9969C62.4209 87.9969 59.5903 87.323 57.2181 85.9752C54.8998 84.5734 53.1206 82.5516 51.8806 79.9098C50.6405 77.214 50.0205 73.8983 50.0205 69.9625V46.2671H60.9382V68.8303C60.9382 72.1191 61.6121 74.5992 62.96 76.2705C64.3618 77.9419 66.4914 78.7776 69.3489 78.7776C71.182 78.7776 72.7994 78.3732 74.2012 77.5645C75.603 76.7019 76.7082 75.4888 77.5169 73.9253C78.3796 72.3078 78.8109 70.3399 78.8109 68.0216V46.2671H89.6477V87.0265H80.1048L79.2152 80.395C78.0291 82.7133 76.2769 84.5734 73.9586 85.9752C71.6402 87.323 68.8906 87.9969 65.7096 87.9969Z" fill="#438CC7"/>
<path d="M21.431 87.9967C17.3335 87.9967 13.6673 87.2959 10.4325 85.8941C7.25151 84.4923 4.71752 82.4436 2.83051 79.7478C0.99742 77.0521 0.0539147 73.7903 0 69.9623H11.5647C11.6186 71.6337 12.0499 73.1433 12.8586 74.4912C13.6673 75.839 14.7726 76.9173 16.1744 77.726C17.6301 78.4808 19.3553 78.8582 21.3502 78.8582C23.0754 78.8582 24.5581 78.5887 25.7981 78.0495C27.0921 77.4565 28.0895 76.6477 28.7904 75.6234C29.4913 74.599 29.8417 73.3859 29.8417 71.9841C29.8417 70.3667 29.4373 69.0188 28.6286 67.9405C27.8738 66.8623 26.7955 65.9457 25.3938 65.1909C24.0459 64.4361 22.4554 63.7622 20.6223 63.1691C18.8431 62.5221 16.9561 61.8482 14.9613 61.1473C10.4864 59.6916 7.06281 57.7507 4.69057 55.3245C2.37224 52.8984 1.21308 49.6905 1.21308 45.7008C1.21308 42.3042 2.0218 39.3928 3.63923 36.9666C5.31058 34.5405 7.60195 32.6804 10.5133 31.3865C13.4247 30.0925 16.7405 29.4456 20.4606 29.4456C24.2885 29.4456 27.6312 30.1195 30.4887 31.4673C33.4001 32.7613 35.6914 34.6483 37.3628 37.1284C39.0881 39.6084 39.9776 42.5198 40.0316 45.8625H28.386C28.3321 44.6225 27.9547 43.4633 27.2538 42.385C26.6068 41.2528 25.6903 40.3633 24.5042 39.7163C23.318 39.0154 21.9163 38.6649 20.2988 38.6649C18.897 38.611 17.6031 38.8267 16.417 39.3119C15.2848 39.7971 14.3682 40.525 13.6673 41.4955C13.0204 42.412 12.6969 43.5712 12.6969 44.9729C12.6969 46.3208 13.0204 47.453 13.6673 48.3696C14.3682 49.2861 15.3117 50.0948 16.4979 50.7957C17.684 51.4427 19.0858 52.0627 20.7032 52.6558C22.3206 53.1949 24.0728 53.761 25.9599 54.3541C28.7634 55.3245 31.3513 56.4837 33.7235 57.8316C36.0958 59.1255 37.9828 60.8238 39.3846 62.9265C40.7864 65.0292 41.4872 67.8058 41.4872 71.2563C41.4872 74.2216 40.7055 76.9712 39.142 79.5052C37.5784 82.0392 35.314 84.0879 32.3487 85.6515C29.4373 87.215 25.7981 87.9967 21.431 87.9967Z" fill="#438CC7"/>
</svg>
