<svg width="294" height="81" viewBox="0 0 294 81" fill="none" xmlns="http://www.w3.org/2000/svg">
<path d="M283.741 55.6768C281.767 55.6733 279.992 55.1965 278.415 54.2464C276.837 53.27 275.59 51.952 274.672 50.2926C273.754 48.6068 273.296 46.7245 273.3 44.6456C273.304 42.5667 273.754 40.7123 274.652 39.0824C275.55 37.4261 276.762 36.1257 278.29 35.181C279.818 34.2364 281.529 33.7657 283.424 33.7691C284.871 33.7716 286.174 34.0371 287.33 34.5654C288.514 35.0938 289.526 35.8324 290.366 36.7812C291.233 37.7038 291.889 38.7707 292.334 39.9819C292.805 41.1669 293.04 42.4173 293.038 43.733C293.037 43.9962 293.024 44.2725 292.997 44.5619C292.97 44.8513 292.93 45.1539 292.877 45.4695L274.68 45.4375L274.684 43.2665L291.539 43.2962L290.471 44.1232C290.632 42.5973 290.411 41.2285 289.808 40.017C289.205 38.7791 288.338 37.8039 287.208 37.0914C286.104 36.3527 284.841 35.982 283.42 35.9795C281.999 35.977 280.696 36.3563 279.51 37.1173C278.325 37.8521 277.389 38.8767 276.702 40.1912C276.016 41.4794 275.698 42.9788 275.747 44.6894C275.692 46.3998 276.018 47.9134 276.726 49.2304C277.434 50.5474 278.406 51.5886 279.641 52.3539C280.877 53.0929 282.245 53.4637 283.745 53.4663C285.271 53.469 286.6 53.1161 287.733 52.4076C288.866 51.6728 289.789 50.7008 290.501 49.4915L292.513 50.5608C292.037 51.5336 291.365 52.414 290.495 53.2019C289.625 53.9635 288.611 54.567 287.452 55.0123C286.32 55.4576 285.083 55.6791 283.741 55.6768Z" fill="#1F6F5F"/>
<path d="M260.774 55.1626L260.811 34.2029L263.179 34.2071L263.172 38.1148L262.739 37.7588C263.188 36.5754 263.953 35.6426 265.033 34.9603C266.14 34.2781 267.443 33.9383 268.943 33.9409L270.285 33.9433L270.281 36.3116L268.662 36.3087C266.952 36.3057 265.609 36.856 264.633 37.9595C263.658 39.0367 263.168 40.4963 263.165 42.3383L263.142 55.1668L260.774 55.1626Z" fill="#1F6F5F"/>
<path d="M245.849 55.61C243.875 55.6065 242.1 55.1297 240.523 54.1796C238.946 53.2032 237.698 51.8852 236.78 50.2258C235.862 48.54 235.405 46.6577 235.408 44.5788C235.412 42.5 235.863 40.6456 236.76 39.0156C237.658 37.3594 238.871 36.0589 240.398 35.1143C241.926 34.1696 243.638 33.699 245.532 33.7023C246.98 33.7049 248.282 33.9703 249.439 34.4986C250.622 35.027 251.634 35.7656 252.474 36.7144C253.341 37.637 253.997 38.7039 254.442 39.9152C254.914 41.1002 255.148 42.3505 255.146 43.6663C255.146 43.9294 255.132 44.2057 255.105 44.4951C255.078 44.7845 255.038 45.0871 254.985 45.4028L236.788 45.3707L236.792 43.1997L253.647 43.2294L252.58 44.0565C252.74 42.5305 252.519 41.1617 251.916 39.9502C251.313 38.7123 250.446 37.7371 249.316 37.0246C248.212 36.2859 246.949 35.9153 245.528 35.9128C244.107 35.9102 242.804 36.2895 241.619 37.0506C240.433 37.7853 239.497 38.8099 238.811 40.1245C238.124 41.4127 237.806 42.9121 237.856 44.6226C237.8 46.333 238.126 47.8467 238.834 49.1637C239.542 50.4806 240.514 51.5218 241.75 52.2871C242.985 53.0261 244.353 53.3969 245.853 53.3995C247.379 53.4022 248.709 53.0493 249.841 52.3408C250.974 51.606 251.897 50.634 252.61 49.4248L254.621 50.494C254.146 51.4669 253.473 52.3472 252.603 53.1351C251.733 53.8967 250.719 54.5002 249.561 54.9455C248.428 55.3909 247.191 55.6124 245.849 55.61Z" fill="#1F6F5F"/>
<path d="M213.67 55.0797L213.722 25.1992L216.09 25.2034L216.067 38.3476L215.476 38.1887C215.952 36.7948 216.796 35.6911 218.008 34.8775C219.246 34.0639 220.681 33.6585 222.312 33.6614C223.76 33.664 225.075 33.9952 226.258 34.6552C227.441 35.3151 228.386 36.2378 229.095 37.4232C229.803 38.5823 230.156 39.9119 230.154 41.4118L230.129 55.1086L227.761 55.1045L227.784 42.0787C227.786 40.8155 227.525 39.7362 227 38.8406C226.502 37.9187 225.806 37.2201 224.912 36.7448C224.044 36.2433 223.058 35.9916 221.953 35.9897C220.769 35.9876 219.729 36.262 218.833 36.8131C217.964 37.3642 217.278 38.1261 216.777 39.0988C216.301 40.0717 216.062 41.1896 216.06 42.4527L216.038 55.0838L213.67 55.0797Z" fill="#1F6F5F"/>
<path d="M187.174 62.9274L187.225 34.0733L189.593 34.0774L189.584 39.3667L189.19 38.6161C189.982 37.0912 191.116 35.8827 192.591 34.9906C194.093 34.0722 195.804 33.6147 197.725 33.6181C199.699 33.6216 201.461 34.0984 203.012 35.0484C204.563 35.9985 205.784 37.3032 206.676 38.9626C207.568 40.622 208.012 42.5043 208.008 44.6095C208.004 46.6621 207.554 48.5165 206.656 50.1727C205.758 51.829 204.533 53.1426 202.978 54.1135C201.424 55.0581 199.66 55.5286 197.686 55.5252C195.765 55.5218 194.043 55.0582 192.518 54.1345C191.02 53.1846 189.904 51.8932 189.17 50.2603L189.565 49.7084L189.542 62.9316L187.174 62.9274ZM197.612 53.1567C199.112 53.1593 200.454 52.7933 201.64 52.0586C202.825 51.2975 203.761 50.2729 204.448 48.9847C205.134 47.6701 205.479 46.1971 205.482 44.5656C205.485 42.9341 205.145 41.473 204.463 40.1824C203.781 38.8917 202.849 37.877 201.666 37.1381C200.483 36.3729 199.142 35.9889 197.642 35.9863C196.142 35.9837 194.786 36.3628 193.574 37.1238C192.363 37.8585 191.4 38.8699 190.687 40.1581C189.975 41.4463 189.617 42.9061 189.614 44.5376C189.611 46.1692 189.964 47.6434 190.672 48.9604C191.38 50.2511 192.326 51.279 193.509 52.0442C194.718 52.7832 196.085 53.154 197.612 53.1567Z" fill="#1F6F5F"/>
<path d="M174.208 55.4838C172.261 55.4804 170.551 54.9905 169.079 54.0143C167.607 53.0381 166.531 51.7073 165.849 50.0219L167.904 49.0782C168.559 50.3688 169.439 51.3966 170.543 52.1617C171.647 52.9004 172.87 53.271 174.212 53.2734C175.58 53.2758 176.725 52.9489 177.648 52.2926C178.596 51.6101 179.071 50.7162 179.073 49.611C179.075 48.9268 178.891 48.3476 178.524 47.8733C178.183 47.399 177.736 47.0166 177.184 46.7262C176.632 46.4095 176.04 46.1716 175.409 46.0126L172.174 45.099C170.359 44.5958 169.018 43.8567 168.151 42.8815C167.311 41.9063 166.892 40.7609 166.894 39.4452C166.896 38.261 167.201 37.2353 167.808 36.3679C168.414 35.4743 169.231 34.7916 170.259 34.3197C171.286 33.8215 172.418 33.5735 173.654 33.5757C175.391 33.5788 176.969 34.0289 178.389 34.9261C179.808 35.8233 180.806 37.0356 181.382 38.5628L179.249 39.5459C178.698 38.3607 177.924 37.4384 176.925 36.7787C175.926 36.0928 174.822 35.7487 173.611 35.7466C172.348 35.7444 171.321 36.0847 170.53 36.7675C169.74 37.4239 169.344 38.2653 169.342 39.2916C169.341 39.9495 169.498 40.5024 169.813 40.9503C170.128 41.3719 170.535 41.7278 171.034 42.0182C171.56 42.2822 172.099 42.4937 172.652 42.6526L176.163 43.685C177.872 44.1617 179.187 44.914 180.106 45.9419C181.052 46.9699 181.523 48.1812 181.521 49.5758C181.519 50.7074 181.201 51.7199 180.568 52.6135C179.935 53.5071 179.065 54.2161 177.959 54.7404C176.853 55.2385 175.603 55.4863 174.208 55.4838Z" fill="#1F6F5F"/>
<path d="M151.024 55.443C148.919 55.4393 146.999 54.9491 145.264 53.9723C143.555 52.9957 142.189 51.6644 141.166 49.9784C140.169 48.2925 139.672 46.3707 139.676 44.2128C139.68 42.055 140.183 40.1349 141.186 38.4525C142.215 36.7702 143.586 35.4437 145.298 34.4731C147.01 33.5025 148.932 33.019 151.064 33.0228C153.169 33.0265 155.076 33.5167 156.785 34.4933C158.493 35.47 159.846 36.8013 160.843 38.4872C161.867 40.1468 162.376 42.0687 162.372 44.2528C162.369 46.4106 161.852 48.3307 160.823 50.0131C159.794 51.6954 158.423 53.0219 156.711 53.9925C154.999 54.9631 153.103 55.4466 151.024 55.443ZM151.033 50.7063C152.19 50.7083 153.204 50.4338 154.073 49.8827C154.969 49.3317 155.668 48.5698 156.169 47.597C156.697 46.598 156.963 45.4801 156.965 44.2433C156.967 42.9802 156.706 41.8745 156.181 40.9262C155.683 39.9517 154.987 39.1874 154.093 38.6332C153.226 38.0527 152.213 37.7615 151.055 37.7594C149.871 37.7573 148.831 38.045 147.935 38.6223C147.04 39.1734 146.328 39.9352 145.8 40.908C145.298 41.8544 145.046 42.9592 145.044 44.2223C145.042 45.4591 145.29 46.5779 145.788 47.5788C146.313 48.5533 147.022 49.3177 147.916 49.8719C148.809 50.4261 149.848 50.7042 151.033 50.7063Z" fill="#1F6F5F"/>
<path d="M126.539 55.3998C124.329 55.3959 122.396 54.8925 120.74 53.8896C119.084 52.8868 117.797 51.5293 116.879 49.8172C115.961 48.1051 115.503 46.2096 115.507 44.1308C115.511 41.973 115.975 40.0659 116.899 38.4097C117.849 36.7273 119.128 35.4006 120.734 34.4298C122.368 33.459 124.184 32.9754 126.184 32.9789C127.868 32.9819 129.342 33.2608 130.604 33.8156C131.892 34.3705 132.983 35.1356 133.876 36.1108C134.769 37.086 135.451 38.2056 135.922 39.4695C136.394 40.7072 136.628 42.0496 136.626 43.4969C136.625 43.8653 136.598 44.2469 136.545 44.6415C136.518 45.0362 136.451 45.3782 136.346 45.6674L119.767 45.6382L119.774 41.691L133.432 41.7151L130.981 43.5659C131.22 42.3559 131.156 41.2769 130.79 40.3289C130.449 39.3809 129.872 38.63 129.057 38.0759C128.268 37.5219 127.308 37.2439 126.177 37.2419C125.098 37.24 124.137 37.5146 123.294 38.0658C122.451 38.5906 121.805 39.3789 121.355 40.4307C120.933 41.4562 120.773 42.7059 120.875 44.1797C120.768 45.4953 120.937 46.6666 121.382 47.6936C121.854 48.6944 122.537 49.4719 123.431 50.0261C124.351 50.5803 125.403 50.8585 126.587 50.8606C127.771 50.8627 128.771 50.6144 129.588 50.1159C130.431 49.6174 131.09 48.9475 131.565 48.1063L135.746 50.1662C135.323 51.1917 134.663 52.0984 133.767 52.8863C132.871 53.6742 131.804 54.2907 130.567 54.7359C129.356 55.1811 128.013 55.4024 126.539 55.3998Z" fill="#1F6F5F"/>
<path d="M98.8451 55.351C96.74 55.3473 94.7933 54.9623 93.0053 54.196C91.2172 53.4297 89.6534 52.3612 88.3137 50.9905C86.9741 49.6198 85.9243 48.0127 85.1644 46.1693C84.4309 44.326 84.066 42.3123 84.0699 40.1281C84.0737 37.944 84.4325 35.9316 85.1462 34.0908C85.8863 32.2237 86.9155 30.6203 88.2336 29.2806C89.578 27.9146 91.1456 26.8648 92.9363 26.1311C94.7271 25.3711 96.675 24.993 98.7802 24.9967C100.885 25.0004 102.766 25.359 104.423 26.0724C106.106 26.7859 107.525 27.7357 108.681 28.9219C109.837 30.0818 110.663 31.3595 111.161 32.7551L106.381 35.036C105.831 33.5088 104.899 32.2704 103.585 31.3207C102.271 30.3711 100.666 29.8946 98.7716 29.8912C96.9295 29.888 95.2973 30.3193 93.8747 31.1852C92.4785 32.0511 91.3844 33.2465 90.5922 34.7714C89.8264 36.2963 89.4417 38.085 89.4381 40.1376C89.4345 42.1901 89.826 43.9934 90.6127 45.5474C91.4258 47.0751 92.542 48.2744 93.9615 49.1452C95.381 50.0161 97.0117 50.4532 98.8538 50.4565C100.354 50.4591 101.736 50.1721 103 49.5954C104.264 48.9924 105.279 48.1521 106.044 47.0745C106.809 45.9706 107.193 44.6687 107.195 43.1688L107.199 40.9189L109.643 43.0547L98.7484 43.0355L98.7564 38.4962L112.572 38.5205L112.566 41.4809C112.562 43.744 112.177 45.7432 111.411 47.4787C110.645 49.2141 109.603 50.6728 108.285 51.8546C106.994 53.0102 105.532 53.8892 103.899 54.4915C102.267 55.0676 100.582 55.3541 98.8451 55.351Z" fill="#1F6F5F"/>
<path d="M286.012 68.4152L287.15 68.4172L289.418 72.2499L289.514 72.2501L291.796 68.4254L292.933 68.4274L289.961 73.2441L289.955 76.6242L288.962 76.6225L288.968 73.2423L286.012 68.4152Z" fill="#1F6F5F"/>
<path d="M275.986 69.2787L275.988 68.3976L282.139 68.4084L282.138 69.2895L279.559 69.285L279.546 76.6059L278.553 76.6041L278.566 69.2832L275.986 69.2787Z" fill="#1F6F5F"/>
<path d="M271.4 68.3895L271.386 76.5915L270.392 76.5898L270.407 68.3878L271.4 68.3895Z" fill="#1F6F5F"/>
<path d="M261.004 76.5732L261.018 68.3712L262.011 68.373L261.998 75.6939L265.811 75.7006L265.809 76.5817L261.004 76.5732Z" fill="#1F6F5F"/>
<path d="M255.982 68.3623L255.967 76.5644L254.974 76.5626L254.988 68.3606L255.982 68.3623Z" fill="#1F6F5F"/>
<path d="M244.594 76.5443L244.608 68.3423L247.476 68.3473C248.047 68.3483 248.518 68.448 248.889 68.6462C249.26 68.8417 249.536 69.1052 249.717 69.4366C249.898 69.7653 249.988 70.1299 249.987 70.5304C249.987 70.8829 249.923 71.1738 249.797 71.4032C249.674 71.6326 249.511 71.8138 249.308 71.947C249.107 72.0801 248.89 72.1785 248.654 72.2422L248.654 72.3223C248.905 72.3387 249.157 72.4273 249.411 72.5879C249.664 72.7486 249.876 72.9786 250.046 73.2779C250.217 73.5772 250.302 73.9432 250.301 74.3757C250.3 74.7869 250.206 75.1565 250.018 75.4845C249.831 75.8126 249.535 76.0724 249.132 76.2639C248.728 76.4555 248.204 76.5507 247.558 76.5495L244.594 76.5443ZM245.589 75.665L247.559 75.6684C248.208 75.6696 248.669 75.5449 248.941 75.2944C249.217 75.0413 249.355 74.7345 249.356 74.374C249.356 74.0963 249.286 73.8399 249.145 73.6047C249.004 73.3668 248.802 73.1769 248.541 73.0349C248.28 72.8903 247.97 72.8177 247.612 72.817L245.594 72.8135L245.589 75.665ZM245.595 71.9484L247.438 71.9517C247.737 71.9522 248.006 71.8939 248.247 71.7769C248.49 71.6598 248.683 71.4946 248.824 71.2813C248.969 71.068 249.041 70.8171 249.042 70.5288C249.043 70.1683 248.918 69.8624 248.667 69.611C248.417 69.3569 248.019 69.2294 247.474 69.2284L245.6 69.2251L245.595 71.9484Z" fill="#1F6F5F"/>
<path d="M234.264 76.5261L233.223 76.5243L236.249 68.3276L237.274 68.3294L240.271 76.5367L239.23 76.5349L236.791 69.6261L236.727 69.626L234.264 76.5261ZM234.654 73.3229L238.851 73.3303L238.85 74.2113L234.653 74.204L234.654 73.3229Z" fill="#1F6F5F"/>
<path d="M228.91 68.3147L228.895 76.5167L227.934 76.515L223.476 70.0673L223.396 70.0671L223.385 76.507L222.391 76.5052L222.406 68.3032L223.367 68.3049L227.841 74.7687L227.921 74.7688L227.933 68.313L228.91 68.3147Z" fill="#1F6F5F"/>
<path d="M217.369 68.2944L217.355 76.4964L216.362 76.4946L216.376 68.2926L217.369 68.2944Z" fill="#1F6F5F"/>
<path d="M206.032 76.4764L204.991 76.4745L208.017 68.2778L209.042 68.2796L212.039 76.4869L210.998 76.4851L208.559 69.5764L208.495 69.5763L206.032 76.4764ZM206.422 73.2731L210.619 73.2805L210.618 74.1616L206.42 74.1542L206.422 73.2731Z" fill="#1F6F5F"/>
<path d="M195.937 69.1376L195.939 68.2565L202.09 68.2674L202.089 69.1484L199.51 69.1439L199.497 76.4648L198.503 76.4631L198.516 69.1421L195.937 69.1376Z" fill="#1F6F5F"/>
<path d="M190.632 70.2977C190.585 69.8918 190.39 69.5764 190.049 69.3516C189.708 69.1267 189.289 69.0138 188.792 69.0129C188.429 69.0123 188.111 69.0705 187.839 69.1875C187.569 69.3045 187.358 69.4656 187.205 69.671C187.055 69.8763 186.98 70.1098 186.98 70.3714C186.979 70.5903 187.031 70.7787 187.135 70.9364C187.241 71.0914 187.377 71.2212 187.543 71.3256C187.708 71.4273 187.881 71.5117 188.063 71.5788C188.244 71.6432 188.411 71.6956 188.563 71.7359L189.396 71.9616C189.609 72.0181 189.847 72.0959 190.108 72.1951C190.372 72.2944 190.624 72.4297 190.864 72.601C191.107 72.7696 191.307 72.9862 191.464 73.2508C191.621 73.5154 191.699 73.84 191.699 74.2244C191.698 74.6676 191.581 75.0679 191.348 75.4253C191.118 75.7826 190.781 76.0664 190.337 76.2765C189.896 76.4867 189.361 76.5912 188.731 76.5901C188.143 76.5891 187.635 76.4934 187.205 76.3031C186.779 76.1127 186.443 75.8478 186.198 75.5083C185.955 75.1688 185.818 74.7748 185.787 74.3262L186.812 74.328C186.839 74.6377 186.942 74.8942 187.123 75.0974C187.307 75.298 187.539 75.4479 187.82 75.5472C188.102 75.6438 188.407 75.6924 188.732 75.693C189.111 75.6937 189.452 75.6329 189.754 75.5106C190.056 75.3856 190.295 75.2125 190.472 74.9912C190.648 74.7672 190.737 74.5057 190.737 74.2067C190.738 73.9344 190.662 73.7126 190.51 73.5415C190.358 73.3704 190.158 73.2312 189.91 73.1239C189.662 73.0167 189.394 72.9228 189.106 72.8422L188.097 72.552C187.457 72.3667 186.95 72.1028 186.577 71.7604C186.203 71.418 186.017 70.9705 186.018 70.4178C186.019 69.9586 186.144 69.5583 186.393 69.217C186.644 68.873 186.981 68.6066 187.404 68.4178C187.828 68.2263 188.302 68.131 188.826 68.1319C189.354 68.1329 189.824 68.2285 190.235 68.4188C190.646 68.6064 190.971 68.8633 191.211 69.1894C191.453 69.5156 191.581 69.8856 191.593 70.2994L190.632 70.2977Z" fill="#1F6F5F"/>
<path d="M180.129 68.2287L181.122 68.2305L181.112 73.6611C181.111 74.2218 180.978 74.7222 180.713 75.1622C180.451 75.5996 180.08 75.9447 179.602 76.1975C179.124 76.4477 178.563 76.5722 177.919 76.571C177.276 76.5699 176.715 76.4434 176.238 76.1916C175.761 75.9371 175.39 75.5907 175.126 75.1524C174.866 74.7114 174.736 74.2106 174.737 73.6499L174.746 68.2192L175.739 68.221L175.73 73.5715C175.729 73.972 175.817 74.3286 175.992 74.6413C176.168 74.9513 176.419 75.196 176.744 75.3755C177.072 75.5523 177.464 75.6411 177.921 75.6419C178.378 75.6427 178.77 75.5553 179.099 75.3797C179.428 75.2014 179.679 74.9575 179.853 74.6481C180.03 74.336 180.119 73.9797 180.119 73.5793L180.129 68.2287Z" fill="#1F6F5F"/>
<path d="M168.991 70.2596C168.944 69.8537 168.75 69.5383 168.408 69.3134C168.067 69.0885 167.648 68.9757 167.151 68.9748C166.788 68.9742 166.47 69.0323 166.198 69.1493C165.928 69.2663 165.717 69.4275 165.564 69.6328C165.414 69.8381 165.339 70.0716 165.339 70.3333C165.338 70.5522 165.39 70.7405 165.494 70.8982C165.6 71.0533 165.736 71.183 165.902 71.2874C166.067 71.3892 166.24 71.4736 166.422 71.5406C166.603 71.605 166.77 71.6574 166.922 71.6977L167.755 71.9235C167.968 71.9799 168.206 72.0578 168.467 72.157C168.731 72.2563 168.984 72.3915 169.224 72.5628C169.466 72.7315 169.666 72.9481 169.823 73.2127C169.98 73.4773 170.058 73.8018 170.058 74.1863C170.057 74.6295 169.94 75.0298 169.707 75.3871C169.477 75.7445 169.14 76.0283 168.696 76.2384C168.256 76.4485 167.72 76.5531 167.09 76.552C166.503 76.5509 165.994 76.4552 165.565 76.2649C165.138 76.0746 164.802 75.8097 164.557 75.4702C164.314 75.1307 164.178 74.7366 164.146 74.288L165.172 74.2898C165.198 74.5996 165.301 74.8561 165.483 75.0593C165.666 75.2599 165.898 75.4098 166.179 75.5091C166.461 75.6057 166.766 75.6543 167.091 75.6549C167.471 75.6555 167.811 75.5947 168.113 75.4724C168.415 75.3475 168.654 75.1744 168.831 74.9531C169.007 74.7291 169.096 74.4676 169.097 74.1686C169.097 73.8962 169.021 73.6745 168.869 73.5034C168.718 73.3322 168.518 73.193 168.269 73.0858C168.021 72.9786 167.753 72.8846 167.465 72.804L166.456 72.5139C165.816 72.3285 165.309 72.0647 164.936 71.7223C164.563 71.3798 164.376 70.9323 164.377 70.3796C164.378 69.9204 164.503 69.5201 164.752 69.1788C165.004 68.8348 165.34 68.5684 165.763 68.3796C166.188 68.1881 166.662 68.0929 167.185 68.0938C167.714 68.0947 168.183 68.1903 168.594 68.3806C169.005 68.5682 169.33 68.8251 169.57 69.1513C169.812 69.4774 169.94 69.8474 169.952 70.2613L168.991 70.2596Z" fill="#1F6F5F"/>
<path d="M152.469 70.7431C152.381 70.4733 152.265 70.2315 152.122 70.0176C151.98 69.8011 151.811 69.6166 151.614 69.4641C151.419 69.3115 151.198 69.195 150.95 69.1145C150.702 69.0339 150.429 68.9934 150.133 68.9929C149.647 68.992 149.205 69.1167 148.807 69.367C148.408 69.6173 148.091 69.9865 147.855 70.4747C147.62 70.9629 147.501 71.5621 147.5 72.2723C147.499 72.9825 147.616 73.5821 147.853 74.0711C148.09 74.5601 148.411 74.9305 148.816 75.1821C149.222 75.4338 149.678 75.5601 150.185 75.561C150.655 75.5618 151.069 75.4625 151.427 75.2628C151.788 75.0606 152.069 74.7754 152.27 74.4073C152.474 74.0365 152.576 73.6002 152.577 73.0982L152.881 73.1628L150.414 73.1585L150.415 72.2774L153.539 72.2829L153.538 73.164C153.537 73.8395 153.391 74.4266 153.102 74.9254C152.816 75.4241 152.42 75.8106 151.915 76.0847C151.412 76.3561 150.835 76.4913 150.184 76.4902C149.458 76.4889 148.82 76.3169 148.27 75.9742C147.724 75.6314 147.297 75.1448 146.991 74.5141C146.688 73.8835 146.537 73.1356 146.539 72.2706C146.54 71.6218 146.628 71.0386 146.802 70.5209C146.979 70.0006 147.228 69.5578 147.549 69.1926C147.87 68.8274 148.25 68.5477 148.688 68.3536C149.126 68.1594 149.609 68.0628 150.135 68.0638C150.567 68.0645 150.97 68.1306 151.344 68.2621C151.72 68.3909 152.055 68.5744 152.348 68.8126C152.644 69.048 152.89 69.3302 153.087 69.6589C153.284 69.985 153.42 70.347 153.494 70.7449L152.469 70.7431Z" fill="#1F6F5F"/>
<path d="M141.834 68.1613L141.82 76.3633L140.858 76.3616L136.4 69.9139L136.32 69.9137L136.309 76.3536L135.316 76.3519L135.33 68.1498L136.291 68.1515L140.765 74.6153L140.845 74.6155L140.857 68.1596L141.834 68.1613Z" fill="#1F6F5F"/>
<path d="M130.294 68.141L130.279 76.343L129.286 76.3412L129.3 68.1392L130.294 68.141Z" fill="#1F6F5F"/>
<path d="M119.082 76.3232L119.097 68.1212L121.868 68.1261C122.512 68.1272 123.037 68.2443 123.445 68.4773C123.856 68.7076 124.16 69.0192 124.357 69.4121C124.554 69.8049 124.652 70.2429 124.651 70.7262C124.65 71.2094 124.55 71.6485 124.352 72.0433C124.157 72.4381 123.854 72.7526 123.445 72.9868C123.037 73.2184 122.513 73.3336 121.875 73.3325L119.888 73.329L119.89 72.4479L121.844 72.4513C122.285 72.4521 122.639 72.3767 122.906 72.2249C123.173 72.0732 123.367 71.868 123.488 71.6092C123.611 71.3478 123.673 71.0529 123.674 70.7245C123.674 70.3961 123.613 70.1023 123.491 69.8431C123.371 69.5839 123.177 69.3806 122.907 69.2333C122.638 69.0833 122.28 69.0079 121.834 69.0071L120.088 69.004L120.075 76.325L119.082 76.3232Z" fill="#1F6F5F"/>
<path d="M108.878 76.3052L108.893 68.1032L111.664 68.1081C112.308 68.1092 112.834 68.2263 113.242 68.4593C113.652 68.6896 113.956 69.0012 114.153 69.394C114.35 69.7869 114.448 70.2249 114.447 70.7082C114.446 71.1914 114.347 71.6305 114.148 72.0253C113.953 72.4201 113.651 72.7346 113.242 72.9688C112.833 73.2004 112.309 73.3156 111.671 73.3145L109.685 73.311L109.686 72.4299L111.641 72.4333C112.081 72.4341 112.435 72.3586 112.702 72.2069C112.97 72.0552 113.164 71.85 113.284 71.5912C113.407 71.3298 113.469 71.0348 113.47 70.7064C113.471 70.378 113.41 70.0842 113.287 69.825C113.168 69.5659 112.973 69.3626 112.704 69.2153C112.434 69.0653 112.077 68.9899 111.631 68.9891L109.885 68.986L109.872 76.307L108.878 76.3052Z" fill="#1F6F5F"/>
<path d="M98.5485 76.287L97.5073 76.2852L100.533 68.0885L101.559 68.0903L104.556 76.2976L103.515 76.2958L101.076 69.387L101.012 69.3869L98.5485 76.287ZM98.9387 73.0838L103.136 73.0912L103.134 73.9723L98.9371 73.9649L98.9387 73.0838Z" fill="#1F6F5F"/>
<path d="M85.1483 68.0614L86.3338 68.0635L89.1092 74.8767L89.2053 74.8769L92.0047 68.0735L93.1901 68.0756L93.1757 76.2776L92.2465 76.2759L92.2575 70.0443L92.1774 70.0442L89.6033 76.2713L88.7062 76.2697L86.1541 70.0336L86.074 70.0334L86.063 76.265L85.1339 76.2634L85.1483 68.0614Z" fill="#1F6F5F"/>
<path d="M0.140991 0L24.7626 25.5899L24.6666 80.073L0.045864 53.9987L0.140991 0Z" fill="#1F6F5F"/>
<path d="M49.4742 0.0869141L24.7626 25.5899L24.6666 80.073L49.3791 54.0856L49.4742 0.0869141Z" fill="#2FA084"/>
<path d="M49.4742 0.0869141L74.0959 25.6769L73.9999 80.1599L49.3791 54.0856L49.4742 0.0869141Z" fill="#6FCF97"/>
</svg>
